<svg width="45" height="5" viewBox="0 0 45 5" fill="none" xmlns="http://www.w3.org/2000/svg">
<path d="M22.5 4.95841C24.0418 4.95841 25.2917 3.85778 25.2917 2.50008C25.2917 1.14238 24.0418 0.041748 22.5 0.041748C20.9582 0.041748 19.7084 1.14238 19.7084 2.50008C19.7084 3.85778 20.9582 4.95841 22.5 4.95841Z" fill="#828282"/>
<path d="M42.0417 4.95841C43.5835 4.95841 44.8334 3.85778 44.8334 2.50008C44.8334 1.14238 43.5835 0.041748 42.0417 0.041748C40.4999 0.041748 39.25 1.14238 39.25 2.50008C39.25 3.85778 40.4999 4.95841 42.0417 4.95841Z" fill="#828282"/>
<path d="M2.95835 4.95841C4.50015 4.95841 5.75002 3.85778 5.75002 2.50008C5.75002 1.14238 4.50015 0.041748 2.95835 0.041748C1.41656 0.041748 0.166687 1.14238 0.166687 2.50008C0.166687 3.85778 1.41656 4.95841 2.95835 4.95841Z" fill="#828282"/>
</svg>
